<svg xmlns="http://www.w3.org/2000/svg" viewBox="0 0 64 64" fill="currentColor">
  <path d="M58 32.5c0-.8-.3-1.5-.9-2.1l-6-6c-.6-.6-1.3-.9-2.1-.9h-8.5l-3.8-7.6c-.9-1.8-2.7-2.9-4.7-2.9H25c-2 0-3.8 1.1-4.7 2.9l-3.8 7.6H8c-.8 0-1.5.3-2.1.9l-6 6c-.6.6-.9 1.3-.9 2.1v16c0 1.7 1.3 3 3 3h2c0 2.8 2.2 5 5 5s5-2.2 5-5h30c0 2.8 2.2 5 5 5s5-2.2 5-5h2c1.7 0 3-1.3 3-3v-16zm-35-13c.3-.6.9-1 1.5-1h15c.6 0 1.2.4 1.5 1l3 6H20l3-6zM9 51.5c-1.7 0-3-1.3-3-3s1.3-3 3-3 3 1.3 3 3-1.3 3-3 3zm46 0c-1.7 0-3-1.3-3-3s1.3-3 3-3 3 1.3 3 3-1.3 3-3 3zm6-6.5h-2.1c-.7-2.3-2.8-4-5.4-4s-4.7 1.7-5.4 4H15.9c-.7-2.3-2.8-4-5.4-4s-4.7 1.7-5.4 4H3v-13l4-4h44l4 4v13h-1z"/>
  <path d="M12 35.5h12v4H12zM40 35.5h12v4H40z"/>
</svg>
